<svg id="Camada_1" data-name="Camada 1" xmlns="http://www.w3.org/2000/svg" viewBox="0 0 173.31 175.83"><defs><style>.cls-1{fill:#132035;}.cls-2{fill:#53a0d8;}.cls-3{fill:#20244d;}.cls-4{fill:#9294c9;}.cls-5{fill:#3655a2;}.cls-6{fill:#3c61ab;}.cls-7{fill:#ebebeb;}.cls-8{fill:#fff;}.cls-9{fill:#e44e28;}.cls-10{fill:#ec662b;}.cls-11{fill:#ea5235;}.cls-12{fill:#010101;}.cls-13{fill:#275888;}.cls-14{fill:#eb7704;}.cls-15{fill:#75cbed;}.cls-16,.cls-17{fill:none;stroke:#75cbed;}.cls-18{fill:#664d9a;}.cls-19{fill:#f6df1c;}</style></defs><g id="Layer_2" data-name="Layer 2"><g id="Surfaces"><g id="Photo_Surface" data-name="Photo Surface"><g id="Outline_no_shadow" data-name="Outline no shadow"><path class="cls-1" d="M123.28,133.38H141a4.86,4.86,0,0,1,4.87,4.87v17.06a4.87,4.87,0,0,1-4.87,4.87H123.28a4.86,4.86,0,0,1-4.87-4.87V138.25A4.86,4.86,0,0,1,123.28,133.38Z" transform="translate(-1.53 -0.14)"/></g></g></g><g id="Outlined_Mnemonics_Logos" data-name="Outlined Mnemonics Logos"><g id="Ps"><path class="cls-2" d="M124.59,152.17V140.39c0-.08,0-.13.12-.13h.64l.87,0,1,0h1a6.73,6.73,0,0,1,2.36.36,3.92,3.92,0,0,1,1.53.94,3.64,3.64,0,0,1,.84,1.3,4.45,4.45,0,0,1,.26,1.49,4.07,4.07,0,0,1-.69,2.44,3.94,3.94,0,0,1-1.84,1.4,7.59,7.59,0,0,1-2.58.39h-.57a3.19,3.19,0,0,0-.49,0v3.68a.15.15,0,0,1-.13.16h-2.22C124.64,152.32,124.59,152.28,124.59,152.17Zm2.5-9.7v3.85l.45,0h.6a4.49,4.49,0,0,0,1.32-.2,2,2,0,0,0,.94-.61,1.79,1.79,0,0,0,.35-1.18,1.83,1.83,0,0,0-.26-1,1.6,1.6,0,0,0-.8-.65,3.4,3.4,0,0,0-1.35-.23h-.78a3,3,0,0,0-.47,0Z" transform="translate(-1.53 -0.14)"/><path class="cls-2" d="M140.4,145.62a4.24,4.24,0,0,0-1.1-.39,6.21,6.21,0,0,0-1.28-.15,2.66,2.66,0,0,0-.69.08.65.65,0,0,0-.36.23.69.69,0,0,0-.09.31.52.52,0,0,0,.12.3,1.34,1.34,0,0,0,.39.31c.26.14.53.26.81.38a8.1,8.1,0,0,1,1.76.83,2.67,2.67,0,0,1,.91.95,2.54,2.54,0,0,1,.26,1.18,2.69,2.69,0,0,1-.45,1.53,2.92,2.92,0,0,1-1.28,1,5.26,5.26,0,0,1-2.07.36,7.43,7.43,0,0,1-1.56-.15,4.8,4.8,0,0,1-1.17-.36.22.22,0,0,1-.12-.22v-2a.15.15,0,0,1,0-.11.11.11,0,0,1,.11,0,4.75,4.75,0,0,0,1.42.57,5.49,5.49,0,0,0,1.35.17,2.26,2.26,0,0,0,.95-.16.54.54,0,0,0,.31-.48.6.6,0,0,0-.28-.46,4.82,4.82,0,0,0-1.12-.54,7.15,7.15,0,0,1-1.63-.83,3,3,0,0,1-.87-1,2.53,2.53,0,0,1-.26-1.17,2.69,2.69,0,0,1,.39-1.38,2.86,2.86,0,0,1,1.2-1.06,4.53,4.53,0,0,1,2-.4,9.7,9.7,0,0,1,1.42.11,3.64,3.64,0,0,1,1,.26.2.2,0,0,1,.12.1.68.68,0,0,1,0,.14v1.87a.13.13,0,0,1-.06.11A.32.32,0,0,1,140.4,145.62Z" transform="translate(-1.53 -0.14)"/></g></g></g><g id="vlpa"><g id="vlpb"><g id="vlpc"><g id="vlpd"><path class="cls-3" d="M34.89,133.38H52.64a4.86,4.86,0,0,1,4.87,4.87v17.06a4.87,4.87,0,0,1-4.87,4.87H34.89A4.87,4.87,0,0,1,30,155.31V138.25A4.86,4.86,0,0,1,34.89,133.38Z" transform="translate(-1.53 -0.14)"/></g></g></g><g id="vlpe"><g id="vlpf"><path class="cls-4" d="M36.55,152.16v-11.8c0-.08,0-.12.11-.12h.64l.88,0,1,0h1a6.75,6.75,0,0,1,2.36.35,4.21,4.21,0,0,1,1.54.94,3.75,3.75,0,0,1,.83,1.31,4.18,4.18,0,0,1,.27,1.49,4.09,4.09,0,0,1-.69,2.44,3.91,3.91,0,0,1-1.84,1.39,7.36,7.36,0,0,1-2.58.39H39v3.68a.13.13,0,0,1-.12.16H36.69c-.1,0-.14-.05-.14-.15Zm2.5-9.7v3.85l.44,0h.61a4.24,4.24,0,0,0,1.32-.21,2.06,2.06,0,0,0,.94-.6,1.79,1.79,0,0,0,.35-1.18,1.92,1.92,0,0,0-.26-1,1.64,1.64,0,0,0-.8-.65,3.31,3.31,0,0,0-1.36-.23h-.77a3,3,0,0,0-.47,0Z" transform="translate(-1.53 -0.14)"/><path class="cls-4" d="M46.86,143.14h2a.25.25,0,0,1,.24.18.88.88,0,0,1,.07.29c0,.11,0,.24.06.35s0,.26,0,.41a4.19,4.19,0,0,1,1.23-1,3.5,3.5,0,0,1,1.74-.45.15.15,0,0,1,.16.13v2.28c0,.09-.06.12-.19.12a4.63,4.63,0,0,0-1.23.12,4.57,4.57,0,0,0-1,.31,1.83,1.83,0,0,0-.58.42v5.84c0,.12,0,.16-.15.16H47a.16.16,0,0,1-.19-.14v-6.39c0-.27,0-.56,0-.86s0-.59,0-.89a7,7,0,0,0,0-.78.1.1,0,0,1,.08-.12s0,0,0,0Z" transform="translate(-1.53 -0.14)"/></g></g></g><g id="g3013"><polygon id="polygon2989" class="cls-5" points="161.94 101.45 152.67 98.87 150.6 75.69 173.31 75.69 171.24 98.87 161.94 101.45"/><polygon id="polygon2991" class="cls-6" points="169.47 97.39 171.24 77.58 161.96 77.58 161.96 99.47 169.47 97.39"/><polygon id="polygon2993" class="cls-7" points="155.34 86.18 155.59 89.03 161.96 89.03 161.96 86.18 155.34 86.18"/><polygon id="polygon2995" class="cls-7" points="154.83 80.43 155.08 83.27 161.96 83.27 161.96 80.43 161.95 80.43 154.83 80.43"/><polygon id="polygon2997" class="cls-7" points="161.96 93.57 161.94 93.57 158.78 92.72 158.57 90.45 157.03 90.45 155.72 90.45 156.12 94.91 161.94 96.53 161.96 96.52 161.96 93.57"/><polygon id="polygon3005" class="cls-8" points="168.56 86.18 169.07 80.43 161.95 80.43 161.95 83.27 165.95 83.27 165.69 86.18 161.95 86.18 161.95 89.03 165.45 89.03 165.12 92.71 161.95 93.57 161.95 96.53 167.77 94.91 167.82 94.43 168.49 86.95 168.56 86.18"/></g><g id="g3054"><polygon id="polygon3028" class="cls-9" points="23.91 74.53 21.73 98.93 11.94 101.64 2.18 98.93 0 74.53 23.91 74.53"/><polygon id="polygon3030" class="cls-10" points="11.96 99.57 19.87 97.38 21.73 76.52 11.96 76.52 11.96 99.57"/><polygon id="polygon3032" class="cls-7" points="7.72 82.51 11.96 82.51 11.96 79.52 11.95 79.52 4.45 79.52 4.52 80.32 5.26 88.57 11.96 88.57 11.96 85.57 7.99 85.57 7.72 82.51"/><polygon id="polygon3034" class="cls-7" points="8.39 90.06 6.78 90.06 5.39 90.06 5.81 94.76 11.94 96.47 11.96 96.46 11.96 93.35 11.94 93.35 8.61 92.45 8.39 90.06"/><polygon id="polygon3044" class="cls-8" points="11.95 88.57 15.63 88.57 15.28 92.45 11.95 93.35 11.95 96.47 18.08 94.76 18.13 94.26 18.83 86.38 18.9 85.57 18.1 85.57 11.95 85.57 11.95 88.57"/><polygon id="polygon3046" class="cls-8" points="11.95 82.5 11.95 82.51 19.17 82.51 19.17 82.51 19.18 82.51 19.24 81.84 19.37 80.32 19.44 79.52 11.95 79.52 11.95 81.37 11.95 82.5"/></g><path class="cls-11" d="M43.26,39,31.52,27.23a1.73,1.73,0,0,0-2.45,0l-2.43,2.44,3.09,3.09a2.05,2.05,0,0,1,2.6,2.62l3,3a2.06,2.06,0,1,1-1.23,1.16L31.3,36.74v7.31a2.25,2.25,0,0,1,.54.39,2.06,2.06,0,1,1-2.91,0A2.46,2.46,0,0,1,29.6,44V36.61a2.08,2.08,0,0,1-.67-.45,2,2,0,0,1-.44-2.25l-3-3-8,8a1.73,1.73,0,0,0,0,2.45L29.13,53.1a1.74,1.74,0,0,0,2.45,0L43.26,41.42a1.74,1.74,0,0,0,0-2.45" transform="translate(-1.53 -0.14)"/><path class="cls-12" d="M145.89,26.76a13.74,13.74,0,0,0-4.34,26.78c.68.13.91-.3.91-.66V50.32c-3.83.83-4.62-1.62-4.62-1.62a3.64,3.64,0,0,0-1.53-2c-1.24-.85.1-.84.1-.84a2.88,2.88,0,0,1,2.1,1.42,2.93,2.93,0,0,0,4,1.14,2.92,2.92,0,0,1,.87-1.83c-3-.35-6.26-1.53-6.26-6.79a5.3,5.3,0,0,1,1.42-3.69,5,5,0,0,1,.13-3.64s1.16-.37,3.78,1.41a13.09,13.09,0,0,1,6.88,0c2.62-1.78,3.78-1.41,3.78-1.41a5,5,0,0,1,.13,3.64,5.32,5.32,0,0,1,1.42,3.69c0,5.27-3.22,6.43-6.28,6.77a3.28,3.28,0,0,1,1,2.55v3.77c0,.36.21.79.91.66a13.74,13.74,0,0,0-4.35-26.78Z" transform="translate(-1.53 -0.14)"/><path class="cls-12" d="M88.7,44.84a.09.09,0,0,1-.09.09h-.09c-.09,0-.09-.09-.18-.18a.31.31,0,0,1-.09-.18c0-.08,0-.08.09-.08l.18.08c.09.09.18.18.18.27M87.1,44c0-.44-.18-.71-.44-.71a.09.09,0,0,1-.09.09v.18h.26c0,.18.09.27.09.44h.18m3.11-.44c.17,0,.26.18.35.44h.18a.31.31,0,0,1-.09-.26.33.33,0,0,0-.09-.27c-.09-.09-.18-.18-.27-.18a.27.27,0,0,1-.17.09c0,.09.09.09.09.18m-2.67,1.42c-.09,0-.09,0-.09-.09a.33.33,0,0,1,.09-.27.42.42,0,0,0,.27-.08.08.08,0,0,1,.09.08c0,.09-.09.18-.27.36h-.09m-1-.09c-.36-.18-.45-.44-.45-.89a.75.75,0,0,1,.18-.62.48.48,0,0,1,.44-.26c.18,0,.27.08.45.26a2.57,2.57,0,0,1,.18.8v.18h.08v-.09c.09,0,.09-.18.09-.53a1.36,1.36,0,0,0-.17-.8.8.8,0,0,0-.71-.45.65.65,0,0,0-.62.45A2,2,0,0,0,85.82,44,1.48,1.48,0,0,0,86.3,45c.09-.09.18-.09.27-.18M97.66,57.35c.09,0,.09,0,.09-.11a1,1,0,0,0-.36-.69,2.18,2.18,0,0,0-1.24-.5H96l-.17,0-.36,0a7,7,0,0,0,.36-2.2,3.47,3.47,0,0,0-.54-2,1.76,1.76,0,0,0-1.15-.88c-.09.08-.09.08-.09.17a2.24,2.24,0,0,1,1.15,1.07,4.16,4.16,0,0,1,.36,1.77,6.31,6.31,0,0,1-.44,2.18,2,2,0,0,0-1,1c0,.08,0,.13.09.13a1.06,1.06,0,0,0,.18-.23c.17-.16.26-.31.44-.46a1.33,1.33,0,0,1,.71-.23,2.87,2.87,0,0,1,1.15.19,1,1,0,0,1,.62.38c.09.13.18.26.27.37a.2.2,0,0,0,.09.17M89.5,44.49a.67.67,0,0,1-.09-.45,1.25,1.25,0,0,1,.17-.8.8.8,0,0,1,.54-.26.9.9,0,0,1,.62.35,2.12,2.12,0,0,1,.18.71.71.71,0,0,1-.54.8.31.31,0,0,0,.18.09c.18,0,.27.09.44.18a7.91,7.91,0,0,0,.18-1.33,2.1,2.1,0,0,0-.26-1.16,1.17,1.17,0,0,0-.89-.35,1.49,1.49,0,0,0-.8.26,1.19,1.19,0,0,0-.27.71,2.45,2.45,0,0,0,.27,1.16c.09,0,.18.09.27.09m1.06,1.41a5.19,5.19,0,0,1-2.75,1.16A2.82,2.82,0,0,1,86,46.35a1.59,1.59,0,0,0,.26.44l.53.53a1.75,1.75,0,0,0,1.25.54,4.22,4.22,0,0,0,2.21-1l.8-.53a.91.91,0,0,0,.36-.62c0-.09,0-.18-.09-.18-.09-.18-.53-.44-1.42-.71a5.28,5.28,0,0,0-1.78-.53,3.39,3.39,0,0,0-1.33.53c-.53.35-.88.71-.88,1.06a1,1,0,0,1,.17.27,2.62,2.62,0,0,0,1.6.71,4.76,4.76,0,0,0,2.75-1.24v.18a.08.08,0,0,1,.09.08m2,17.93a1.84,1.84,0,0,0,1.69,1,1.67,1.67,0,0,0,.53-.08,1.06,1.06,0,0,0,.44-.17l.27-.19c.18-.06.18-.11.27-.15l1.5-1.31a5.89,5.89,0,0,1,1.16-.74,6.39,6.39,0,0,1,.89-.44,1.52,1.52,0,0,0,.62-.32.89.89,0,0,0,.17-.51.8.8,0,0,0-.35-.6,1.92,1.92,0,0,0-.53-.3,1.88,1.88,0,0,1-.62-.44,2.37,2.37,0,0,1-.45-1l-.09-.51a2.84,2.84,0,0,0-.17-.52s0,0-.09,0a.5.5,0,0,0-.36.23c-.18.15-.35.32-.53.49s-.36.34-.53.49a1.65,1.65,0,0,1-.71.23,1.4,1.4,0,0,1-1.33-.57,3.32,3.32,0,0,1-.36-1c-.18-.15-.27-.23-.44-.23-.45,0-.62.46-.62,1.39v2.76a2.82,2.82,0,0,0-.09.54,3,3,0,0,0-.09.94l-.18,1v0m-12.87-.47a14.62,14.62,0,0,1,2.85.77,9.47,9.47,0,0,0,2,.59,1.92,1.92,0,0,0,1.56-.8,1.31,1.31,0,0,0,.09-.61,5.67,5.67,0,0,0-1.51-3.18l-.61-.81c-.12-.17-.27-.43-.47-.77a5.28,5.28,0,0,0-.49-.8,2.14,2.14,0,0,0-.54-.61,1.72,1.72,0,0,0-.79-.41,1.17,1.17,0,0,0-.75.36,1.07,1.07,0,0,0-.21.55.51.51,0,0,1-.17.37,1.54,1.54,0,0,1-.45.15h-.48a2.19,2.19,0,0,0-1,.15,1.25,1.25,0,0,0-.34.86,3.46,3.46,0,0,0,.11.72,3.84,3.84,0,0,1,.1.78,2,2,0,0,1-.33,1.09,1.94,1.94,0,0,0-.33.87q.14.51,1.74.72m3-8.06a5.53,5.53,0,0,1,.49-2.09,5.74,5.74,0,0,1,.95-1.68c0-.09-.06-.09-.14-.09l-.08-.09a7,7,0,0,0-1,1.77,5.32,5.32,0,0,0-.56,2.08,2,2,0,0,0,.27,1.05,6.56,6.56,0,0,0,1.41,1.26l.94.61c1,.87,1.54,1.47,1.54,1.83a.72.72,0,0,1-.36.57.8.8,0,0,1-.62.32s0,0,0,.07.08.18.27.53a2.74,2.74,0,0,0,2.24.75,5.38,5.38,0,0,0,4.61-2.39,1.78,1.78,0,0,0-.09-.84v-.33a2.46,2.46,0,0,1,.27-1.29.71.71,0,0,1,.62-.42.84.84,0,0,1,.53.2,13.31,13.31,0,0,0,.09-1.81,7.58,7.58,0,0,0-.18-2.1,4.71,4.71,0,0,0-.44-1.33l-.53-.8c-.18-.26-.27-.53-.45-.79a4.28,4.28,0,0,1-.17-1.07c-.27-.44-.45-.89-.71-1.33s-.36-.89-.54-1.24l-.79.62a4,4,0,0,1-2.22.89,1.44,1.44,0,0,1-1.25-.45l-.53-.44a2.39,2.39,0,0,1-.26,1l-.56,1.07a5.62,5.62,0,0,0-.41,1.24,2,2,0,0,1-.08.36l-.67,1.33a7.81,7.81,0,0,0-1.08,3.58,4.46,4.46,0,0,0,0,.63,1.32,1.32,0,0,1-.59-1.15M89,63.68a6.09,6.09,0,0,0-2.66.47v0a2,2,0,0,1-1.63.81,6.68,6.68,0,0,1-2-.51,23.27,23.27,0,0,0-2.48-.72l-.49-.09c-.24,0-.48-.08-.68-.13a5.2,5.2,0,0,1-.63-.18A1.55,1.55,0,0,1,77.9,63a.51.51,0,0,1-.18-.38,1.29,1.29,0,0,1,.09-.45,1.75,1.75,0,0,1,.18-.29,2.52,2.52,0,0,0,.15-.27,1.15,1.15,0,0,0,.12-.25,1,1,0,0,0,.09-.26,1.27,1.27,0,0,0,0-.26c0-.09,0-.36-.11-.83a8.45,8.45,0,0,1-.11-.88,1.32,1.32,0,0,1,.29-.92A.8.8,0,0,1,79,57.9h1a.84.84,0,0,0,.39-.15c.07-.14.12-.26.16-.36a2,2,0,0,1,.08-.22.75.75,0,0,1,0-.16,1.05,1.05,0,0,1,.14-.2.54.54,0,0,1-.11-.35.86.86,0,0,1,0-.24,3.19,3.19,0,0,1,.47-1.36l.31-.56a11.06,11.06,0,0,0,.6-1.19,11.87,11.87,0,0,0,.49-1.6,4.3,4.3,0,0,1,1-1.86l.66-.8a6,6,0,0,0,.93-1.33,2.86,2.86,0,0,0,.26-1.15c0-.18,0-.71-.14-1.6s-.13-1.78-.13-2.57a5.46,5.46,0,0,1,.17-1.51A2.91,2.91,0,0,1,86,39.45a2.34,2.34,0,0,1,1.15-.89A5.79,5.79,0,0,1,89,38.29a2.4,2.4,0,0,1,.8.09,3.07,3.07,0,0,1,1.07.27,3.35,3.35,0,0,1,1,.62,3.91,3.91,0,0,1,.89,1.15,8.57,8.57,0,0,1,.44,1.78c.09.44.09.88.18,1.5s.09.89.09,1.16.09.62.18,1.06a3.15,3.15,0,0,0,.35,1A7.29,7.29,0,0,0,94.63,48c.27.45.62.89,1,1.42a8.87,8.87,0,0,1,1.77,2.84,7.38,7.38,0,0,1,.71,3.28,6,6,0,0,1-.26,1.78.37.37,0,0,1,.35.2,2.43,2.43,0,0,1,.27.8l.09.66a1.05,1.05,0,0,0,.44.54,2.14,2.14,0,0,0,.62.4,2.67,2.67,0,0,1,.62.37.8.8,0,0,1,.27.56.87.87,0,0,1-.27.69,1.39,1.39,0,0,1-.62.38l-1.06.51a9.45,9.45,0,0,0-1.33,1l-.89.76a5.11,5.11,0,0,1-1,.74,1.91,1.91,0,0,1-1,.24L93.75,65a2,2,0,0,1-1.42-1.08A31.14,31.14,0,0,0,89,63.68" transform="translate(-1.53 -0.14)"/><path class="cls-8" d="M85.77,126.55a6.31,6.31,0,0,1,2.29-4.48,7.78,7.78,0,0,1,9.88,0,6.15,6.15,0,0,1,.36,9.28,7.77,7.77,0,0,1-10.6,0,6.2,6.2,0,0,1-1.93-4.8Z" transform="translate(-1.53 -0.14)"/><path class="cls-13" d="M89.28,126.71a3.23,3.23,0,0,1,1.18-2.3,4,4,0,0,1,5.07,0,3.25,3.25,0,0,1,1.17,2.3,3.13,3.13,0,0,1-1,2.46,4,4,0,0,1-5.44,0,3.2,3.2,0,0,1-1-2.46Z" transform="translate(-1.53 -0.14)"/><path class="cls-14" d="M83.37,128.56a7,7,0,0,0,.29,1.6,8.55,8.55,0,0,0,1.83,3.16,9.33,9.33,0,0,0,3.19,2.29,10.29,10.29,0,0,0,4.19.88,10.43,10.43,0,0,0,4.19-.89,9.63,9.63,0,0,0,3.19-2.3,8.51,8.51,0,0,0,1.82-3.17,7.73,7.73,0,0,0,.35-1.76,8.64,8.64,0,0,0-.06-1.76,8.25,8.25,0,0,0-1.16-3.18,9.07,9.07,0,0,0-2.12-2.34h0l-8.59-6.59,0,0a1.92,1.92,0,0,0-2.13,0,1,1,0,0,0-.14,1.62h0L91.78,119H80.85a2,2,0,0,0-1.95,1.34c-.17.76.44,1.39,1.38,1.4h5.53l-9.87,7.58,0,0a2,2,0,0,0-.65,2.65,2,2,0,0,0,2.81,0l5.38-4.41s-.07.6-.07,1Zm13.85,2a6.24,6.24,0,0,1-8.7,0,5.07,5.07,0,0,1-1.18-1.86,4.84,4.84,0,0,1-.28-2.07,4.93,4.93,0,0,1,.6-2A5.32,5.32,0,0,1,89,123.11a6.3,6.3,0,0,1,7.78,0,5.32,5.32,0,0,1,1.32,1.57,4.88,4.88,0,0,1,.6,2,4.76,4.76,0,0,1-.28,2.08,5.24,5.24,0,0,1-1.18,1.86Z" transform="translate(-1.53 -0.14)"/><circle class="cls-15" cx="86.96" cy="88.34" r="2.56"/><ellipse class="cls-16" cx="86.96" cy="88.34" rx="13.74" ry="5.25"/><ellipse class="cls-17" cx="88.48" cy="88.48" rx="5.25" ry="13.74" transform="translate(-33.91 55.95) rotate(-30)"/><ellipse class="cls-17" cx="88.48" cy="88.48" rx="13.74" ry="5.25" transform="translate(-33.91 120.73) rotate(-60)"/><path class="cls-18" d="M93.15,168.13a2,2,0,0,0-.21-3.91h-.07a2,2,0,0,0-1.88,2,2,2,0,0,0,.55,1.29A12.45,12.45,0,0,1,85.83,173a9.49,9.49,0,0,1-5.68,1.08A4.86,4.86,0,0,1,76.59,172a5.13,5.13,0,0,1-.28-5.4,8.29,8.29,0,0,1,2.37-2.79c-.13-.45-.34-1.22-.45-1.78-5,3.66-4.53,8.61-3,10.95a7.23,7.23,0,0,0,6.07,2.82,8.77,8.77,0,0,0,2.09-.24,13.4,13.4,0,0,0,9.76-7.46Zm6.13-4.32a14.12,14.12,0,0,0-11-4.81h-.56A1.9,1.9,0,0,0,86,158h-.07a2,2,0,0,0,.07,3.9h.07a2,2,0,0,0,1.71-1.18h.63a13.32,13.32,0,0,1,7.42,2.26,9.36,9.36,0,0,1,3.7,4.47,4.86,4.86,0,0,1-.07,4.11,5.13,5.13,0,0,1-4.78,2.86,8.74,8.74,0,0,1-3.41-.74c-.39.35-1.08.91-1.57,1.26A10.71,10.71,0,0,0,94.19,176a7.57,7.57,0,0,0,6.76-3.69c1-2,1-5.51-1.67-8.47Zm-17.7,4.91a2,2,0,0,0,2,1.88h.07a2,2,0,0,0-.07-3.9h-.07a.66.66,0,0,0-.24,0A12.75,12.75,0,0,1,81.4,159a9.36,9.36,0,0,1,2.06-5.41,6.06,6.06,0,0,1,4.29-2c3.69-.07,5.26,4.53,5.36,6.38.46.1,1.22.35,1.75.52C94.44,152.9,91,150,87.61,150a7.88,7.88,0,0,0-7.18,5.61,14.24,14.24,0,0,0,1.39,12.13,1.56,1.56,0,0,0-.24,1Z" transform="translate(-1.53 -0.14)"/><rect class="cls-19" x="73.61" width="26.68" height="26.68"/><path class="cls-12" d="M93.06,21a2.75,2.75,0,0,0,2.48,1.52c1,0,1.7-.52,1.7-1.24s-.68-1.16-1.83-1.66l-.62-.27c-1.81-.77-3-1.74-3-3.78a3.35,3.35,0,0,1,3.67-3.31,3.69,3.69,0,0,1,3.56,2l-2,1.25a1.7,1.7,0,0,0-1.61-1.07,1.08,1.08,0,0,0-1.2,1.07c0,.75.46,1.06,1.54,1.52l.63.27c2.13.91,3.33,1.85,3.33,3.94,0,2.26-1.77,3.49-4.15,3.49A4.82,4.82,0,0,1,91,22.17Zm-8.85.21c.39.7.75,1.29,1.61,1.29s1.34-.32,1.34-1.57V12.39h2.51V21c0,2.6-1.52,3.78-3.74,3.78a3.89,3.89,0,0,1-3.76-2.29Z" transform="translate(-1.53 -0.14)"/></svg>